<?xml version="1.0" encoding="utf-8"?>
<!-- Generator: Adobe Illustrator 25.4.1, SVG Export Plug-In . SVG Version: 6.00 Build 0)  -->
<svg version="1.1" id="Layer_1" xmlns="http://www.w3.org/2000/svg" xmlns:xlink="http://www.w3.org/1999/xlink" x="0px" y="0px"
	 viewBox="0 0 1920 1080" style="enable-background:new 0 0 1920 1080;" xml:space="preserve">
<style type="text/css">
	.st0{fill:#5B3B97;}
	.st1{fill:#6B4EA1;}
</style>
<g>
	<g id="XMLID_00000037683440544446114560000012937535671990134934_">
		<g>
			<path class="st0" d="M1498,600.6c11.4,3.5,12.9,9.4,4.6,18.2c-52.8,56.5-114.4,100.1-187.6,126.3
				c-51.8,18.5-105.4,26.5-156.8,24.3c-64.8,1.4-124.7-6.9-183.4-24.2c-10-2.9-19.3-1.5-28.9,1.3c-70.5,21-143,26.2-215.8,22.4
				c-88.3-4.6-167.5-35.1-238.1-88.6c-24.4-18.5-47.7-38-67.9-60.9c-11.4-13-11.1-14.8,5.2-19.5c38.2-10.9,77.1-18.7,116.7-22.1
				c2.8-0.2,5.6-0.4,8.3-1.1c4.8-1.2,7.4-3.2,4.1-8.9c-11.6-19.6-22.6-39.4-30.3-61c-11-30.8-19.6-62-20.8-94.9
				c-0.3-8.3,4.9-8.8,11.1-8.7c43,0.1,85.4,5.8,127.5,13.9c11.7,2.3,23.4,4.7,35,7.4c6.6,1.5,10.5-0.2,12.7-7.1
				c6.4-19.6,13.2-39.1,22.1-57.8c2.2-4.7,5-9.2,7.8-13.6c3.4-5.4,8.4-4,13.2-2.7c31.3,8.4,61.4,19.8,90.7,33.7
				c2.9,1.4,5.6,2.9,8.5,4.2c11,5,16,3.1,22.8-7.1c26.2-39.3,57.4-74.1,94.7-103.4c7-5.5,12.5-5.2,18.7-0.1
				c19.3,15.7,38.1,32,54.2,51.1c15.1,17.9,30.5,35.6,42.6,56c5.5,9.2,13.6,6.4,21.4,2.8c23.8-11.2,48.1-21.3,73.2-29.4
				c8.7-2.8,17.4-5.5,26.1-8.1c6.5-2,11.5-0.7,14.9,6c9.7,19.1,18.4,38.5,23.8,59.3c4.5,17.3,6.8,19,24.1,15
				c49.7-11.6,99.9-19,151-20c10.4-0.2,15,2.4,13.8,13.5c-3.5,30.6-8.2,60.7-19.4,89.8c-7.7,20.1-17.8,38.8-28.2,57.4
				c-5.6,10-4.2,13.4,7.7,14c17.3,0.8,34.2,4.1,51.1,6.9C1451.8,588.7,1475.2,593.5,1498,600.6z M1485.6,622.1
				c10.4-11,9.6-14.1-4.7-17.8c-33-8.5-66.6-13.4-100.3-18.8c-19.4-3.1-30,4.7-40.7,17.9c-27,33.3-61.5,57.4-99.4,76.3
				c-69.1,34.4-143.1,51.2-219.5,58.6c-4,0.4-9.9-0.1-10,5.2c-0.1,4.7,5.7,4.4,9.2,5.2c44.5,9.2,89.4,13.8,139.5,14.7
				c23.7-1.3,52.2-1.5,80.2-6.6C1336.8,739.1,1418.3,693.5,1485.6,622.1z M1405.1,425c0-1.2,0-2.3,0-3.3c-0.1-10-1.9-10.9-13.4-10.6
				c-8.4,0.2-16.8,1.2-25.2,1.9c-59.4,5.1-117.5,16.3-173.7,36.2c-24.8,8.8-48.9,19.5-71.6,32.9c-6.4,3.8-12,7.8-12.2,16.9
				c-0.4,19.6-2.3,38.8-7.4,58.1c-6.3,23.8-16.6,45.3-29.1,65.9c-21.1,34.6-46.8,65.4-76.7,92.8c-4,3.7-12.3,6.6-8.9,13.6
				c1,2,2.5,2.8,4.4,3.1c3.6,0.5,8.5-0.9,13.4,0.2c14.6-2.1,30.4-4.2,46.4-6.5c5.3-0.8,10.7-1.5,16.1-2.3
				c54.1-8,106.5-22.3,156.2-45.2c47.5-21.9,88.6-52,120.4-94.3c18.3-24.3,32.1-50.8,43.1-78.8
				C1397.2,479.7,1404.7,453.1,1405.1,425z M1212.6,433.9c4.4-1.5,8.8-3.1,8.3-9.1c-0.1-0.7-0.2-1.4-0.3-2.1
				c-3-21.8-12.8-41.3-20.7-61.4c-2.4-6.2-7.8-11-16-8.5c-32.8,10.3-64.9,22.5-95.4,38.4c-6.6,3.4-7.4,8.1-4.3,13.9
				c10.7,19.5,16.7,40.7,21.9,62c2.1,8.6,6.1,9.8,13.6,5.7c9.8-5.3,20-10,30.2-14.8C1170.1,448.3,1191.3,440.9,1212.6,433.9z
				 M1097.5,528.1c3.3-24.2,1.5-48-4.7-71.9c-4.9-18.9-13.1-36.1-21.4-53.4c-11.5-23.8-27.3-44.8-44-65.1
				c-16.8-20.3-35.2-39-55.7-55.6c-6.9-5.5-12.5-5-19.4,1c-35.9,31.2-67.4,66.2-91.5,107.4c-20.5,34.9-34.4,71.9-33.9,116.1
				c0,14,2.7,30.3,6.9,46.8c6,23.4,16.1,44.9,28.3,65.2c23.1,38.4,52.6,71.6,85.9,101.5c11.8,10.6,18.3,10.8,29.7,0.1
				c37-34.6,71.2-71.3,94.4-117.1C1084.2,579.4,1093.9,554.8,1097.5,528.1z M939.8,728.8c1.2-3.9-2.7-6-5.3-8.3
				c-38.6-35.7-72.5-75.1-95.5-122.8c-13.8-28.6-22.2-59.1-23.5-90.7c-0.1-3-0.5-5.8-1-8.3c-2-9.4-7.2-15.3-16.6-20.4
				c-80.9-43.6-168.9-59.4-259-66.8c-2.3,0-4.6-0.1-6.9-0.1c-2.3,0-4.5,0-6.8,0.3c-3.6,0.4-7.4,2.5-6.8,6.7
				c2.4,17,3.8,34.3,8.2,50.7c8.2,30.5,20.2,59.4,36.1,87c25,43.3,59.6,76.8,101.8,102.6c39.8,24.4,83.1,40.7,128.3,52.2
				c45,11.4,90.7,19,137.1,21.5c0.2,0,0.3,0,0.5,0C934,732.5,938.5,733.5,939.8,728.8z M908.2,747.4c2.2-0.5,5.4-1,5.1-4.3
				c-0.2-3-3.3-3.3-5.6-4.1c-1.6-0.6-3.4-0.8-5.2-0.9c-50.1-5.1-99.3-14.4-147.2-30.1c-38.2-12.5-74.9-28-108.3-50.8
				c-27.2-18.4-51.5-40-72-65.6c-5-6.3-10.8-8.2-18.4-7.1c-6.2,0.9-12.5,1.6-18.7,2.3c-9.5,1.1-18.9,2.2-28.3,3.7
				c-23.6,3.8-47.1,8.1-70,15c-9.7,2.9-10.5,5.8-3.8,12.8c10,10.3,19.8,20.8,30.6,30.3c86.2,76,186.2,116,302,114.3
				c39.2-0.9,78.4-3.3,117.1-10.8c7.2-1.4,14.5-2.9,21.7-4.6C907.6,747.6,907.9,747.5,908.2,747.4z M833.5,421.5
				c3.3-7.9,11-14.9,8.5-24.9l0,0c-1.5-5-6.2-6.4-10.2-8.3c-28.2-13.4-57.2-24.6-86.8-34.7c-9.8-3.4-15.9,0.8-19.6,8.8
				c-7.9,17.5-14.3,35.6-19.3,54.1c-2.8,10.3,0.3,15.7,10.4,18.8c30.9,9.5,60.4,22.4,88.9,37.5c8.9,4.7,11.4,2.6,14.5-7.4
				C824.3,450.8,827.5,435.8,833.5,421.5z"/>
			<path class="st1" d="M1503.6,598.7c12.5,3.7,14.2,8.9,5.6,18.5c-47.6,53.3-104,94.6-170,122.5c-59.2,25-121.1,34.7-192.9,34.5
				c-53.1-0.6-113.1-8.4-171.9-25c-7.7-2.2-14.9-2.2-22.7,0c-65,18.4-131.4,26.2-198.8,24.9c-80.6-1.6-156.5-21.5-225.1-64.1
				c-41.4-25.7-80.7-54.7-111.6-93.3c-7.2-9-6.4-14.1,4.7-17.7c31.5-10.2,63.9-16.3,96.6-21.2c10.4-1.5,20.9-2.6,31.3-4
				c5.3-0.7,6.5-2.9,3.4-7.8c-23.8-37.7-39-78.6-46-122.7c-1.5-9.6-4.2-19-4-29c0.3-11.2,3.9-15.5,15.1-15.1c29.1,1,58.1,3,87,7.3
				c24.6,3.7,49.2,7.9,73.3,14.2c7.4,1.9,11.9,0.4,13.5-8.1c4.3-23.7,16.5-44.5,26.1-66.1c3.6-7.9,10.1-9.7,18.5-7.3
				c34.2,9.7,67.7,21.2,99.3,37.5c9.7,5,15.8,3.7,21-5c18.4-30.6,42.3-56.6,68.1-81c8.6-8.2,18.4-15.2,27.2-23.1
				c8.1-7.2,15.6-6.3,23.6,0c22,17.4,42.2,36.7,60.6,57.9c13.1,15.1,25.7,30.5,35.9,47.7c4.4,7.3,9.6,7.8,16.7,4.3
				c31.6-15.5,64.5-27.4,98.2-37.4c13.4-4,19.2-1.2,25,11.4c9.6,20.6,18,41.7,24.1,63.7c2,7,6.8,7.1,12.4,5.8
				c52.2-13.1,105.4-19.7,159.1-21.6c11.6-0.4,15.2,2.7,14.9,13.6c-1.2,37.2-9.8,72.5-24.3,106.8c-6.7,15.9-14.8,30.8-23.6,45.5
				c-3.8,6.3-0.5,8.1,5,8.9c18.4,2.6,36.8,4.8,55.2,7.9C1457.6,585.9,1480.7,591.9,1503.6,598.7z M1502.7,618.8
				c8.2-8.8,6.7-14.6-4.6-18.2c-22.8-7.1-46.2-11.9-69.8-15.9c-16.9-2.9-33.8-6.1-51.1-6.9c-11.9-0.6-13.2-4-7.7-14
				c10.4-18.6,20.4-37.3,28.2-57.4c11.2-29.1,15.9-59.2,19.4-89.8c1.3-11-3.4-13.7-13.8-13.5c-51.1,1.1-101.3,8.4-151,20
				c-17.2,4-19.6,2.3-24.1-15c-5.4-20.8-14.1-40.2-23.8-59.3c-3.4-6.7-8.4-8-14.9-6c-8.7,2.6-17.5,5.3-26.1,8.1
				c-25.1,8.1-49.4,18.3-73.2,29.4c-7.7,3.6-15.9,6.5-21.4-2.8c-12.1-20.3-27.4-38.1-42.6-56c-16.1-19.1-34.9-35.4-54.2-51.1
				c-6.2-5-11.8-5.3-18.7,0.1c-37.3,29.3-68.4,64.1-94.7,103.4c-6.8,10.2-11.8,12.1-22.8,7.1c-2.9-1.3-5.7-2.8-8.5-4.2
				c-29.2-13.9-59.4-25.3-90.7-33.7c-4.8-1.3-9.8-2.7-13.2,2.7c-2.8,4.4-5.6,8.9-7.8,13.6c-8.9,18.7-15.8,38.2-22.1,57.8
				c-2.2,6.9-6.1,8.6-12.7,7.1c-11.6-2.7-23.3-5.1-35-7.4c-42.1-8.1-84.5-13.9-127.5-13.9c-6.1,0-11.4,0.4-11.1,8.7
				c1.2,32.9,9.8,64.1,20.8,94.9c7.7,21.6,18.7,41.5,30.3,61c3.4,5.7,0.7,7.7-4.1,8.9c-2.7,0.7-5.5,0.8-8.3,1.1
				c-39.7,3.4-78.5,11.2-116.7,22.1c-16.3,4.6-16.6,6.5-5.2,19.5c20.2,22.9,43.5,42.4,67.9,60.9c70.6,53.5,149.9,84,238.1,88.6
				c72.9,3.8,145.3-1.4,215.8-22.4c9.6-2.9,18.9-4.3,28.9-1.3c58.7,17.2,118.6,25.5,183.4,24.2c51.4,2.2,104.9-5.8,156.8-24.3
				C1388.3,718.9,1449.8,675.2,1502.7,618.8z"/>
			<path class="st1" d="M1371.6,588.6c-7.8-0.8-13,0.8-18.1,7c-28.2,34.2-62.2,61.6-101.3,82.4c-63.8,33.9-132.6,51.3-203.7,60.7
				c-9.5,1.2-19,2.3-28.9,3.4c1.4,3.9,3.7,3.8,5.7,4.2c29.4,4.9,58.8,9.6,88.6,11.5c51.8,3.3,103,1.7,153.7-10.6
				c44.1-10.7,85.5-28.1,123.3-52.7c32-20.8,63.1-43.3,89-71.8c9.9-10.9,9.7-12.5-3.7-15.8C1441.8,598.3,1407,592.1,1371.6,588.6z
				 M1340,603.3c10.7-13.2,21.3-21,40.7-17.9c33.6,5.4,67.3,10.3,100.3,18.8c14.3,3.7,15,6.8,4.7,17.8
				c-67.3,71.4-148.8,117.1-245.6,134.6c-28,5.1-56.6,5.3-80.2,6.6c-50.1-0.9-95-5.6-139.5-14.7c-3.5-0.7-9.3-0.5-9.2-5.2
				c0.1-5.4,6-4.9,10-5.2c76.4-7.4,150.4-24.1,219.5-58.6C1278.5,660.7,1312.9,636.6,1340,603.3z"/>
			<path class="st1" d="M1405.1,421.7h-2.4c0-4.3-1.9-7.9-9.8-7.4c-56.5,3.9-112.2,12.4-166.7,28.1c-35.2,10.2-68.9,23.9-100.9,41.7
				c-5.5,3-11.3,5.9-11.1,13.9c0.3,11.9-2.2,23.6-3.4,35.3c-1.9,18.1-6.8,35.2-13.4,51.5c-13.4,33.2-33.4,62.8-56.6,90.2
				c-15.8,18.6-33,35.9-50.2,54.8c0.1,0,0.2,0,0.3,0l0.3,2.8c-1.9-0.3-3.4-1.1-4.4-3.1c-3.4-7,4.8-9.9,8.9-13.6
				c29.9-27.3,55.7-58.2,76.7-92.8c12.5-20.6,22.8-42.1,29.1-65.9c5.1-19.3,7-38.5,7.4-58.1c0.2-9.1,5.8-13.1,12.2-16.9
				c22.7-13.4,46.8-24.1,71.6-32.9c56.3-19.9,114.4-31.1,173.7-36.2c8.4-0.7,16.8-1.7,25.2-1.9
				C1403.2,410.8,1405.1,411.8,1405.1,421.7z"/>
			<path class="st1" d="M1405.1,421.7c0,1,0,2.1,0,3.3c-0.4,28.1-8,54.7-18.2,80.5c-11.1,28-24.8,54.5-43.1,78.8
				c-31.8,42.3-72.9,72.5-120.4,94.3c-49.7,22.9-102.1,37.2-156.2,45.2c-5.4,0.8-10.7,1.6-16.1,2.3l-0.4-3
				c25.3-3.7,50.4-8.6,75.2-14.9c50.5-13,99.1-30.4,142.8-59.8c36.4-24.3,66-54.8,88.5-92.4c12.1-20.2,20.5-42,29.2-63.6
				c8.5-20.9,11.3-43.1,15.5-65c0.4-1.9,0.7-3.9,0.7-5.8L1405.1,421.7z"/>
			<path class="st1" d="M1221,424.8c0.5,6-3.9,7.7-8.3,9.1c-21.3,7-42.5,14.4-62.8,24c-10.1,4.8-20.3,9.5-30.2,14.8
				c-7.5,4.1-11.5,2.9-13.6-5.7c-5.2-21.4-11.2-42.5-21.9-62c-3.1-5.7-2.2-10.4,4.3-13.9c30.6-15.9,62.6-28.1,95.4-38.4
				c8.2-2.6,13.6,2.3,16,8.5c7.9,20.1,17.7,39.7,20.7,61.4C1220.7,423.4,1220.9,424.1,1221,424.8z M1206.9,431.8
				c5-1.7,10.4-3.4,9.6-11.6c-6.7-17.9-11.5-37.6-20.4-55.9c-4.2-8.7-9.4-9-16.9-6.4c-29.1,10.2-58.1,21-85.7,34.9
				c-5.5,2.8-6.8,5.2-4.2,11.2c8.8,19.8,17.3,39.8,20.4,61.5c0.8,5.8,3.5,5.9,8,3.6c10-5.1,20-10.2,30.2-14.8
				C1167.1,445.6,1186.9,438.5,1206.9,431.8z"/>
			<path class="st1" d="M1092.8,456.3c6.1,23.9,7.9,47.7,4.7,71.9c-3.6,26.6-13.2,51.2-25.4,75.1c-23.2,45.7-57.4,82.5-94.4,117.1
				c-11.5,10.7-17.9,10.5-29.7-0.1c-33.3-29.9-62.8-63.1-85.9-101.5c-12.2-20.4-22.3-41.8-28.3-65.2c-4.3-16.5-6.9-32.8-6.9-46.8
				c-0.5-44.2,13.3-81.2,33.9-116.1c24.2-41.2,55.6-76.1,91.5-107.4c6.9-6,12.5-6.6,19.4-1c20.5,16.6,38.9,35.3,55.7,55.6
				c16.8,20.2,32.6,41.3,44,65.1C1079.7,420.1,1088,437.4,1092.8,456.3z M1062.1,611.3c18.4-33.5,33.7-67.9,30.6-104.4
				c0.2-20.4,0.7-37.9-5.1-54.3c-12.4-35.1-28.5-68.3-52.1-97.6c-19.6-24.4-40.7-47.1-64-68c-6.5-5.8-11.5-5.2-18,0.7
				c-38.9,34.8-72.9,73.4-96.6,120.4c-18.2,36.1-29,72.9-23.6,114.3c3.5,27.3,11.4,52.1,23.6,76.5c22.8,45.7,55.7,82.9,92.9,116.8
				c12.4,11.3,14.6,11,26.7-0.2C1009.7,684.6,1040,651.4,1062.1,611.3z"/>
			<path class="st1" d="M1050.7,723.3l0.4,3c-16,2.3-31.8,4.5-46.4,6.5c-4.9-1-9.8,0.4-13.4-0.2l-0.3-2.8
				c18.1-1.9,36.3-3.2,54.4-5.7C1047.2,723.8,1048.9,723.5,1050.7,723.3z"/>
			<path class="st1" d="M906.6,744.8l0.6,2.8c-7.2,1.7-14.4,3.2-21.7,4.6c-38.7,7.5-78,9.9-117.1,10.8
				c-115.8,1.7-215.7-38.3-302-114.3c-10.8-9.5-20.6-20-30.6-30.3c-6.8-7-6-9.9,3.8-12.8c22.9-6.9,46.4-11.2,70-15
				c9.4-1.5,18.8-2.6,28.3-3.7l0.3,2.8c-1.7,0.2-3.5,0.5-5.3,0.8c-29,5.3-58.1,9.7-86.7,17c-7.9,2-10.8,5.1-3.5,11.6
				c1.6,1.4,2.7,3.2,4.2,4.7c32,32.8,67.9,60.4,108,82.7c39.6,22,81.5,37.9,126.1,45.7c60.6,10.5,121.5,9.3,182.3,0.1
				C877.7,750.1,892,747.4,906.6,744.8z"/>
			<path class="st1" d="M755.3,708.1c47.9,15.6,97.2,25,147.2,30.1c1.7,0.2,3.5,0.4,5.2,0.9c2.2,0.8,5.3,1.1,5.6,4.1
				c0.3,3.2-2.9,3.8-5.1,4.3c-0.3,0.1-0.6,0.2-1,0.2l-0.6-2.8c-1.8-4.1-4.5-3.8-6.8-4c-53.7-4.6-105.9-15.9-157-33.2
				c-60.4-20.4-115.6-49.8-157.4-98.6c-14.2-16.6-28-21.7-47.1-19.4l-0.3-2.8c6.2-0.7,12.5-1.5,18.7-2.3c7.6-1.1,13.4,0.8,18.4,7.1
				c20.5,25.7,44.8,47.2,72,65.6C680.4,680,717.1,695.6,755.3,708.1z"/>
			<path class="st1" d="M842,396.6c2.5,10-5.2,17-8.5,24.9c-6,14.3-9.2,29.3-13.7,43.9c-3.1,10-5.6,12.1-14.5,7.4
				c-28.5-15.2-58-28-88.9-37.5c-10.1-3.1-13.2-8.5-10.4-18.8c5.1-18.6,11.5-36.7,19.3-54.1c3.6-8.1,9.8-12.2,19.6-8.8
				c29.5,10.1,58.6,21.3,86.8,34.7C835.7,390.1,840.4,391.5,842,396.6L842,396.6c-2-0.6-4.2-0.9-6-1.8c-28.5-14.4-58.2-26-88.4-36.4
				c-8.2-2.8-13.7-2.3-17.9,6.4c-8.5,17.7-14,36.4-20.1,54.8c-1.4,4.3-1.9,8.9,4.5,10.8c32.2,9.9,63.4,22.5,92.9,38.9
				c3.8,2.1,5.8,1.7,7.3-3.5c4.2-15.1,8.5-30.2,14.4-44.6C832.3,412.8,834.4,403.1,842,396.6C841.9,396.6,842,396.6,842,396.6
				L842,396.6z"/>
			<path d="M842,396.5C842,396.6,842,396.6,842,396.5L842,396.5C842,396.6,842,396.6,842,396.5z"/>
			<path d="M842,396.5C842,396.6,842,396.6,842,396.5C842,396.6,841.9,396.6,842,396.5L842,396.5z"/>
			<path class="st1" d="M814.5,498.6c0.5,2.5,0.9,5.2,1,8.3c1.3,31.6,9.7,62.1,23.5,90.7c23,47.8,56.9,87.2,95.5,122.8
				c2.6,2.4,6.5,4.4,5.3,8.3c-1.4,4.7-5.9,3.7-9.4,3.4l0.2-2.5c1.8,0.1,3.5-0.2,5.1-1.5c0-0.5,0.1-1-0.1-1.1
				c-42.7-38.6-80.2-81-103.4-134.6c-11.7-27.2-22.3-54.6-19.9-84.8c0.2-3.2,0.1-6-0.4-8.5L814.5,498.6z"/>
			<path class="st1" d="M532,411.3c2.3,0,4.6,0.1,6.9,0.1c90.1,7.4,178.2,23.2,259,66.8c9.5,5.1,14.6,11,16.6,20.4l-2.6,0.5
				c-1.5-7.3-6.1-12.1-14-16.4c-48.3-26.3-99.8-42.8-153.4-53.8C608,421.5,571,417.4,534,414c-0.7-0.1-1.4-0.1-2-0.1V411.3z"/>
			<path class="st1" d="M525.2,411.5c2.2-0.3,4.5-0.3,6.8-0.3v2.6c-5.7,0-8.3,2.7-8.1,9.5c0.2,7.1,0.8,14,2.4,20.9
				c6.8,29.7,15,58.7,28.4,86.3c16.4,33.9,37.8,63.8,65.1,89.4c31.4,29.4,68.6,49.9,108.2,65.7c63.8,25.3,130.8,37,198.7,43.6
				c1.2,0.1,2.5,0.3,3.8,0.4l-0.2,2.5c-0.2,0-0.3,0-0.5,0c-46.4-2.5-92-10.1-137.1-21.5c-45.2-11.4-88.5-27.8-128.3-52.2
				c-42.2-25.8-76.8-59.3-101.8-102.6c-15.9-27.5-28-56.5-36.1-87c-4.4-16.5-5.8-33.8-8.2-50.7C517.8,414,521.6,412,525.2,411.5z"/>
		</g>
	</g>
</g>
</svg>
