<?xml version="1.0" encoding="utf-8"?>
<!-- Generator: Adobe Illustrator 25.4.1, SVG Export Plug-In . SVG Version: 6.00 Build 0)  -->
<svg version="1.1" id="Layer_1" xmlns="http://www.w3.org/2000/svg" xmlns:xlink="http://www.w3.org/1999/xlink" x="0px" y="0px"
	 viewBox="0 0 1920 1080" style="enable-background:new 0 0 1920 1080;" xml:space="preserve">
<g>
	<g>
		<path d="M1146.32,774.24c-53.08-0.59-113.11-8.4-171.9-25.03c-7.71-2.18-14.94-2.22-22.7-0.02
			c-64.99,18.38-131.37,26.21-198.81,24.86c-80.6-1.61-156.46-21.46-225.09-64.12c-41.37-25.71-80.73-54.66-111.65-93.34
			c-7.15-8.95-6.35-14.13,4.73-17.73c31.47-10.24,63.89-16.35,96.56-21.18c10.4-1.54,20.87-2.64,31.29-4.02
			c5.3-0.7,6.47-2.87,3.37-7.76c-23.85-37.69-39-78.59-46.04-122.72c-1.54-9.65-4.21-19.05-3.97-28.97
			c0.27-11.21,3.9-15.49,15.13-15.09c29.1,1.04,58.14,3.04,86.98,7.34c24.64,3.68,49.16,7.93,73.3,14.19
			c7.4,1.92,11.91,0.4,13.46-8.15c4.3-23.72,16.46-44.47,26.12-66.13c3.55-7.95,10.11-9.69,18.46-7.33
			c34.17,9.66,67.67,21.23,99.27,37.49c9.67,4.98,15.79,3.66,21.01-5.02c18.39-30.61,42.35-56.55,68.07-80.95
			c8.63-8.19,18.37-15.18,27.24-23.12c8.08-7.24,15.63-6.3,23.56-0.02c22.02,17.43,42.21,36.72,60.64,57.94
			c13.1,15.08,25.66,30.54,35.94,47.7c4.37,7.3,9.64,7.77,16.72,4.3c31.57-15.49,64.52-27.36,98.18-37.39
			c13.38-3.98,19.16-1.18,24.99,11.37c9.59,20.65,17.97,41.72,24.06,63.66c1.96,7.05,6.81,7.15,12.39,5.75
			c52.24-13.1,105.36-19.72,159.12-21.57c11.59-0.4,15.25,2.69,14.91,13.62c-1.15,37.17-9.82,72.54-24.26,106.83
			c-6.69,15.9-14.8,30.84-23.56,45.54c-3.76,6.32-0.51,8.14,5.01,8.92c18.39,2.61,36.85,4.84,55.16,7.9
			c23.57,3.94,46.7,9.94,69.6,16.71c12.53,3.7,14.22,8.86,5.61,18.51c-47.63,53.35-104,94.6-170,122.52
			C1280.06,764.75,1218.09,774.4,1146.32,774.24z M1158.28,769.38c51.43,2.17,104.94-5.79,156.79-24.33
			c73.2-26.18,134.73-69.81,187.58-126.29c8.24-8.81,6.73-14.64-4.64-18.16c-22.84-7.09-46.24-11.94-69.77-15.89
			c-16.92-2.85-33.82-6.1-51.08-6.93c-11.88-0.57-13.24-3.96-7.67-13.97c10.38-18.63,20.42-37.28,28.16-57.4
			c11.21-29.13,15.93-59.2,19.4-89.79c1.26-11.05-3.39-13.67-13.76-13.46c-51.11,1.06-101.31,8.43-150.99,20.05
			c-17.25,4.04-19.61,2.26-24.08-15c-5.38-20.76-14.07-40.23-23.79-59.3c-3.4-6.67-8.35-7.97-14.85-6
			c-8.73,2.65-17.46,5.34-26.14,8.15c-25.08,8.13-49.36,18.26-73.21,29.44c-7.74,3.63-15.9,6.45-21.36-2.77
			c-12.06-20.34-27.45-38.06-42.59-55.98c-16.1-19.06-34.88-35.36-54.18-51.06c-6.21-5.05-11.75-5.34-18.71,0.13
			c-37.28,29.28-68.44,64.09-94.65,103.42c-6.76,10.15-11.84,12.1-22.8,7.06c-2.87-1.32-5.65-2.83-8.51-4.19
			c-29.21-13.94-59.4-25.27-90.66-33.72c-4.82-1.3-9.84-2.7-13.23,2.7c-2.78,4.44-5.56,8.93-7.81,13.65
			c-8.92,18.67-15.76,38.16-22.13,57.81c-2.23,6.87-6.09,8.61-12.7,7.1c-11.64-2.66-23.32-5.13-35.04-7.39
			c-42.11-8.13-84.48-13.87-127.48-13.93c-6.12-0.01-11.37,0.41-11.06,8.74c1.23,32.91,9.81,64.11,20.81,94.93
			c7.72,21.62,18.68,41.47,30.27,61.05c3.38,5.71,0.74,7.66-4.06,8.87c-2.69,0.68-5.54,0.83-8.33,1.07
			c-39.66,3.43-78.52,11.19-116.74,22.09c-16.3,4.65-16.65,6.49-5.21,19.45c20.25,22.95,43.53,42.42,67.93,60.91
			c70.61,53.5,149.86,83.98,238.12,88.56c72.89,3.78,145.31-1.41,215.84-22.44c9.58-2.86,18.91-4.26,28.9-1.33
			C1033.57,762.44,1093.49,770.77,1158.28,769.38z"/>
		<path d="M826.86,506.73c-0.51-44.17,13.32-81.15,33.86-116.1c24.19-41.18,55.62-76.15,91.54-107.38
			c6.91-6.01,12.55-6.59,19.41-1.05c20.52,16.56,38.92,35.29,55.69,55.56c16.76,20.25,32.55,41.33,44.03,65.1
			c8.33,17.26,16.58,34.49,21.44,53.4c6.14,23.88,7.93,47.66,4.66,71.87c-3.59,26.63-13.25,51.25-25.36,75.1
			c-23.23,45.74-57.41,82.52-94.43,117.08c-11.45,10.69-17.92,10.55-29.74-0.07c-33.29-29.9-62.78-63.08-85.85-101.47
			c-12.23-20.35-22.27-41.8-28.31-65.21C829.53,537.07,826.86,520.73,826.86,506.73z M1092.64,506.89
			c0.16-20.38,0.73-37.91-5.08-54.27c-12.44-35.07-28.52-68.27-52.05-97.65c-19.56-24.42-40.74-47.14-64.04-67.96
			c-6.5-5.81-11.52-5.15-18.05,0.7c-38.91,34.82-72.86,73.43-96.64,120.44c-18.24,36.06-28.95,72.92-23.59,114.32
			c3.53,27.27,11.43,52.05,23.64,76.46c22.82,45.65,55.71,82.89,92.94,116.78c12.45,11.33,14.64,10.97,26.69-0.22
			c33.23-30.86,63.58-64.12,85.63-104.19C1080.52,577.79,1095.75,543.38,1092.64,506.89z"/>
		<path d="M538.85,411.4c90.14,7.4,178.15,23.16,259.04,66.81c11.97,6.46,16.99,14.25,17.6,28.71c1.34,31.6,9.74,62.1,23.54,90.72
			c23.02,47.75,56.91,87.17,95.52,122.84c2.57,2.37,6.46,4.42,5.3,8.33c-1.45,4.89-6.35,3.58-9.96,3.39
			c-46.41-2.52-92.05-10.08-137.08-21.47c-45.19-11.43-88.48-27.78-128.29-52.16c-42.16-25.82-76.77-59.33-101.76-102.62
			c-15.88-27.52-27.95-56.5-36.1-86.97c-4.4-16.47-5.84-33.76-8.23-50.73c-0.6-4.25,3.18-6.27,6.76-6.7
			C529.68,410.99,534.29,411.4,538.85,411.4z M935.67,728.2c-0.04-0.5,0.07-0.97-0.1-1.13c-42.66-38.57-80.22-80.98-103.4-134.62
			c-11.74-27.16-22.26-54.58-19.9-84.8c0.97-12.36-3.84-19.14-14.36-24.88c-48.27-26.32-99.85-42.8-153.45-53.8
			c-36.5-7.49-73.43-11.6-110.48-14.97c-7.15-0.65-10.32,1.85-10.13,9.41c0.18,7.08,0.83,14.04,2.39,20.89
			c6.77,29.66,15.03,58.65,28.44,86.32c16.43,33.89,37.79,63.82,65.11,89.39c31.42,29.4,68.55,49.93,108.25,65.69
			c63.82,25.33,130.76,37.04,198.74,43.63C929.72,729.61,933.02,730.57,935.67,728.2z"/>
		<path d="M1004.67,732.76c-7.46-1.55-14.95,2.52-17.75-3.29c-3.39-7.03,4.84-9.94,8.88-13.63c29.94-27.34,55.69-58.18,76.74-92.76
			c12.54-20.6,22.8-42.14,29.11-65.93c5.12-19.31,6.99-38.54,7.38-58.11c0.18-9.06,5.78-13.1,12.15-16.86
			c22.74-13.43,46.79-24.14,71.64-32.93c56.26-19.9,114.36-31.13,173.72-36.2c8.38-0.72,16.77-1.66,25.17-1.91
			c12.62-0.38,13.61,0.82,13.41,13.86c-0.44,28.09-7.97,54.67-18.18,80.49c-11.07,28.02-24.85,54.55-43.12,78.83
			c-31.82,42.29-72.94,72.48-120.42,94.34c-49.73,22.9-102.09,37.25-156.2,45.24C1045.71,727.08,1024.17,730,1004.67,732.76z
			 M990.72,729.79c18.24-1.88,36.55-3.24,54.71-5.77c27.08-3.77,53.95-8.86,80.46-15.66c50.52-12.96,99.06-30.44,142.84-59.75
			c36.37-24.35,66.01-54.75,88.51-92.39c12.09-20.23,20.49-41.96,29.24-63.65c8.45-20.93,11.3-43.14,15.53-65.01
			c1.18-6.13,2.32-13.97-9.03-13.2c-56.5,3.86-112.18,12.36-166.67,28.12c-35.19,10.18-68.88,23.95-100.92,41.71
			c-5.48,3.04-11.31,5.89-11.11,13.85c0.3,11.9-2.17,23.56-3.41,35.27c-1.91,18.11-6.82,35.22-13.39,51.52
			c-13.42,33.25-33.44,62.77-56.59,90.19C1025.12,693.67,1007.9,710.88,990.72,729.79z"/>
		<path d="M1159.8,763.28c-50.06-0.94-95.04-5.55-139.5-14.72c-3.54-0.73-9.34-0.49-9.23-5.15c0.13-5.4,6-4.86,10.02-5.25
			c76.4-7.4,150.42-24.13,219.49-58.56c37.89-18.89,72.36-43.01,99.4-76.28c10.7-13.17,21.28-21.01,40.71-17.87
			c33.62,5.43,67.27,10.31,100.27,18.84c14.28,3.69,15.02,6.79,4.66,17.77c-67.33,71.4-148.84,117.07-245.6,134.6
			C1211.99,761.74,1183.47,761.98,1159.8,763.28z M1019.64,742.1c1.41,3.91,3.67,3.81,5.71,4.15c29.4,4.88,58.79,9.56,88.6,11.47
			c51.75,3.32,103.04,1.66,153.74-10.61c44.11-10.68,85.48-28.06,123.31-52.73c31.97-20.84,63.05-43.27,89.01-71.82
			c9.9-10.89,9.73-12.52-3.71-15.82c-34.46-8.46-69.31-14.66-104.67-18.17c-7.84-0.78-12.99,0.78-18.13,7.01
			c-28.21,34.22-62.21,61.63-101.3,82.39c-63.78,33.86-132.58,51.29-203.7,60.69C1038.99,739.91,1029.46,740.93,1019.64,742.1z"/>
		<path d="M768.46,763.04c-115.76,1.67-215.74-38.34-301.96-114.33c-10.76-9.48-20.62-20-30.61-30.32
			c-6.75-6.96-5.97-9.85,3.75-12.78c22.91-6.9,46.42-11.21,70-15c15.58-2.5,31.34-3.87,46.98-6.05c7.64-1.06,13.39,0.84,18.41,7.12
			c20.51,25.65,44.84,47.19,71.99,65.63c33.42,22.7,70.12,38.29,108.32,50.75c47.94,15.64,97.16,25,147.25,30.07
			c1.74,0.18,3.52,0.37,5.16,0.94c2.24,0.77,5.31,1.1,5.56,4.08c0.28,3.25-2.87,3.75-5.09,4.28c-7.51,1.77-15.07,3.35-22.64,4.81
			C846.84,759.7,807.63,762.12,768.46,763.04z M906.6,744.84c-1.76-4.14-4.47-3.76-6.79-3.96c-53.71-4.6-105.94-15.94-157.04-33.18
			c-60.42-20.38-115.55-49.8-157.44-98.58c-15.54-18.09-30.46-22.56-52.38-18.57c-28.97,5.26-58.07,9.71-86.65,16.95
			c-7.91,2.01-10.8,5.08-3.48,11.56c1.56,1.38,2.72,3.21,4.19,4.72c32.03,32.77,67.87,60.45,108,82.73
			c39.64,22.01,81.52,37.93,126.08,45.67c60.63,10.52,121.52,9.31,182.27,0.07C877.71,750.06,891.98,747.36,906.6,744.84z"/>
		<path d="M841.95,396.55c2.49,10.02-5.17,17.02-8.47,24.93c-5.96,14.32-9.2,29.29-13.7,43.92c-3.09,10.03-5.57,12.13-14.46,7.4
			c-28.52-15.18-58.03-28-88.89-37.54c-10.08-3.12-13.18-8.5-10.36-18.78c5.09-18.56,11.45-36.65,19.35-54.14
			c3.64-8.07,9.78-12.21,19.58-8.84c29.51,10.13,58.56,21.34,86.75,34.73c3.99,1.89,8.67,3.29,10.21,8.34
			c-1.99-0.57-4.14-0.85-5.96-1.77c-28.52-14.42-58.21-25.96-88.38-36.38c-8.15-2.82-13.73-2.3-17.92,6.44
			c-8.46,17.67-13.98,36.35-20.11,54.83c-1.43,4.32-1.87,8.86,4.55,10.82c32.25,9.88,63.4,22.47,92.94,38.89
			c3.75,2.08,5.85,1.69,7.29-3.46c4.22-15.06,8.46-30.23,14.41-44.64C832.3,412.81,834.4,403.09,841.95,396.55z"/>
		<path d="M1220.97,424.8c0.48,6.03-3.92,7.69-8.35,9.14c-21.32,6.99-42.49,14.37-62.78,24.04c-10.12,4.82-20.33,9.5-30.16,14.85
			c-7.48,4.07-11.48,2.87-13.58-5.71c-5.24-21.39-11.21-42.54-21.9-62.05c-3.14-5.73-2.25-10.44,4.31-13.86
			c30.57-15.92,62.62-28.09,95.44-38.39c8.18-2.57,13.59,2.26,16.01,8.46c7.88,20.12,17.66,39.67,20.69,61.44
			C1220.74,423.42,1220.86,424.11,1220.97,424.8z M1216.53,420.23c-6.73-17.88-11.51-37.56-20.37-55.92
			c-4.18-8.67-9.41-9.01-16.88-6.39c-29.14,10.24-58.06,20.99-85.7,34.95c-5.47,2.76-6.85,5.24-4.21,11.2
			c8.77,19.82,17.31,39.81,20.43,61.52c0.84,5.83,3.54,5.87,7.96,3.63c10-5.07,19.98-10.18,30.18-14.83
			c19.18-8.75,38.97-15.93,58.96-22.58C1211.88,430.14,1217.3,428.46,1216.53,420.23z"/>
	</g>
</g>
</svg>
